<?xml version="1.0" encoding="UTF-8" standalone="no"?>
<!-- Created with Inkscape (http://www.inkscape.org/) -->

<svg
   version="1.1"
   id="svg2"
   width="1333.3333"
   height="1333.3333"
   viewBox="0 0 1333.3333 1333.3333"
   sodipodi:docname="logo.ai"
   xmlns:inkscape="http://www.inkscape.org/namespaces/inkscape"
   xmlns:sodipodi="http://sodipodi.sourceforge.net/DTD/sodipodi-0.dtd"
   xmlns="http://www.w3.org/2000/svg"
   xmlns:svg="http://www.w3.org/2000/svg">
  <defs
     id="defs6">
    <clipPath
       clipPathUnits="userSpaceOnUse"
       id="clipPath16">
      <path
         d="M 0,1000 H 1000 V 0 H 0 Z"
         id="path14" />
    </clipPath>
    <clipPath
       clipPathUnits="userSpaceOnUse"
       id="clipPath236">
      <path
         d="M 0,1000 H 1000 V 0 H 0 Z"
         id="path234" />
    </clipPath>
  </defs>
  <sodipodi:namedview
     id="namedview4"
     pagecolor="#ffffff"
     bordercolor="#000000"
     borderopacity="0.25"
     inkscape:showpageshadow="2"
     inkscape:pageopacity="0.0"
     inkscape:pagecheckerboard="0"
     inkscape:deskcolor="#d1d1d1" />
  <g
     id="g8"
     inkscape:groupmode="layer"
     inkscape:label="logo"
     transform="matrix(1.3333333,0,0,-1.3333333,0,1333.3333)">
    <g
       id="g10">
      <g
         id="g12"
         clip-path="url(#clipPath16)">
        <text
           xml:space="preserve"
           transform="matrix(1,0,0,-1,989.3867,759.8799)"
           style="font-variant:normal;font-weight:bold;font-stretch:normal;font-size:36.612px;font-family:Montserrat;-inkscape-font-specification:Montserrat-Bold;writing-mode:lr-tb;fill:#1e2059;fill-opacity:1;fill-rule:nonzero;stroke:none"
           id="text20"><tspan
             x="0 23.358456 52.940952 64.949692 91.749672 118.58627 148.16876 176.21356 205.79605 236.03757 258.15121 282.71786 309.62769 332.98615 344.99487 374.57736 402.80524 430.85001 457.64999 488.55054 515.46033 540.02698 566.82697 597.72754 624.27124"
             y="0"
             sodipodi:role="line"
             id="tspan18">SHIPCHANDLERSINGAPOREPORT</tspan></text>
        <g
           id="g22"
           transform="translate(735.1875,621.2754)">
          <path
             d="m 0,0 c -7.008,-6.559 -14.19,-12.558 -14.19,-12.558 l 0.014,-0.019 c -4.304,-3.867 -6.599,-7.522 -7.868,-11.022 -1.843,-5.487 -0.046,-10.357 2.983,-14.218 2.215,-2.855 3.719,-4.662 4.335,-5.791 0.711,-1.118 0.944,-1.485 0.944,-1.485 0,0 0.265,0.159 0.721,0.438 0.199,-0.312 0.279,-0.439 0.279,-0.439 0,0 8.266,4.963 15.824,10.393 7.713,5.399 15.306,11.372 15.306,11.372 l -0.012,0.015 c 4.623,3.852 7.098,8.027 8.09,12.111 1.845,6.56 -1.391,12.462 -4.881,16.855 -5.378,6.355 -6.69,7.906 -6.69,7.906 0,0 -0.199,-0.205 -0.535,-0.549 -0.338,0.398 -0.465,0.55 -0.465,0.55 C 13.855,13.559 7.026,6.503 0,0"
             style="fill:#f1ae1d;fill-opacity:1;fill-rule:nonzero;stroke:none"
             id="path24" />
        </g>
        <g
           id="g26"
           transform="translate(720.9512,656.3423)">
          <path
             d="m 0,0 c -6.159,-7.569 -12.571,-14.613 -12.571,-14.613 l 0.014,-0.015 c -3.855,-4.511 -5.722,-8.521 -6.199,-12.048 -0.412,-2.809 0.177,-5.273 1.115,-7.544 0.819,-2.316 2.217,-4.35 3.89,-6.078 4.987,-5.204 6.204,-6.474 6.204,-6.474 0,0 0.206,0.173 0.553,0.465 0.323,-0.337 0.446,-0.465 0.446,-0.465 0,0 7.185,6.004 14.192,12.566 7.025,6.508 13.849,13.564 13.849,13.564 l -0.014,0.018 c 4.199,4.541 5.672,8.874 5.97,13.016 0.369,6.54 -2.934,12.257 -6.969,16.125 -2.971,2.878 -5.234,4.402 -6.378,5.423 -1.213,0.98 -1.612,1.302 -1.612,1.302 0,0 -0.136,-0.192 -0.363,-0.513 C 11.667,15.1 11.49,15.242 11.49,15.242 11.49,15.242 5.99,7.419 0,0"
             style="fill:#f1ae1d;fill-opacity:1;fill-rule:nonzero;stroke:none"
             id="path28" />
        </g>
        <g
           id="g30"
           transform="translate(701.3994,688.7451)">
          <path
             d="m 0,0 c -4.855,-8.259 -10.032,-16.035 -10.032,-16.035 l 0.017,-0.015 c -2.962,-4.884 -4.378,-9.196 -4.504,-12.852 -0.177,-5.768 2.965,-9.914 6.995,-12.744 3.068,-2.045 4.636,-3.545 5.659,-4.398 1.011,-0.866 1.342,-1.148 1.342,-1.148 0,0 0.162,0.181 0.432,0.484 0.409,-0.35 0.568,-0.485 0.568,-0.485 0,0 1.59,1.787 3.976,4.468 2.393,2.716 5.536,6.392 8.382,10.051 5.844,7.351 11.411,15.214 11.411,15.214 l -0.016,0.011 c 3.327,4.994 4.499,9.685 4.274,13.869 -0.153,6.773 -4.667,11.668 -9.388,14.807 -6.978,4.552 -8.68,5.663 -8.68,5.663 0,0 -0.095,-0.179 -0.256,-0.485 C 9.642,16.756 9.436,16.89 9.436,16.89 9.436,16.89 4.889,8.211 0,0"
             style="fill:#f1ae1d;fill-opacity:1;fill-rule:nonzero;stroke:none"
             id="path32" />
        </g>
        <g
           id="g34"
           transform="translate(672.4004,706.1133)">
          <path
             d="m 0,0 v -2.142 c -0.925,-1.966 -1.507,-3.163 -1.507,-3.163 l 0.019,-0.01 c -2.423,-5.409 -3.076,-9.775 -2.53,-13.291 0.414,-2.194 1.229,-4.121 2.314,-5.811 -0.156,-0.253 -0.321,-0.498 -0.496,-0.734 1.551,-2.146 3.557,-3.868 5.807,-5.147 6.288,-3.57 7.821,-4.44 7.821,-4.44 0,0 0.099,0.15 0.272,0.412 0.529,-0.299 0.728,-0.413 0.728,-0.413 0,0 5.177,7.782 10.03,16.044 4.887,8.215 9.429,16.896 9.429,16.896 l -0.019,0.013 c 2.782,5.566 3.042,10.185 2.121,14.206 -1.498,6.364 -6.288,10.902 -11.258,13.465 -3.593,1.986 -6.217,2.788 -7.601,3.447 -1.442,0.598 -1.914,0.793 -1.914,0.793 0,0 -0.048,-0.132 -0.129,-0.36 -0.631,0.261 -0.871,0.361 -0.871,0.361 0,0 -0.804,-2.255 -2.009,-5.638 C 8.948,21.092 7.388,16.774 5.427,12.234 3.521,7.696 1.518,3.272 0,0"
             style="fill:#f1ae1d;fill-opacity:1;fill-rule:nonzero;stroke:none"
             id="path36" />
        </g>
        <g
           id="g38"
           transform="translate(647.8086,735.7798)">
          <path
             d="M 0,0 C -1.597,-5.708 -2.932,-9.982 -2.932,-9.982 L -2.91,-9.99 c -1.463,-5.502 -1.693,-10.134 -0.741,-13.631 0.687,-2.627 1.986,-4.695 3.651,-6.32 v 1.076 c 1.998,-2.422 4.741,-4.009 7.674,-4.999 3.537,-1.086 5.357,-2.189 6.632,-2.671 1.217,-0.544 1.617,-0.722 1.617,-0.722 0,0 1.021,2.16 2.552,5.401 1.478,3.228 3.572,7.746 5.262,12.042 3.536,8.689 6.665,17.79 6.665,17.79 l -0.017,0.007 c 1.786,5.72 1.592,10.545 0.196,14.489 -2.065,6.434 -7.69,9.957 -13.146,11.594 -7.987,2.4 -9.935,2.985 -9.935,2.985 0,0 -1.925,-9.598 -4.309,-18.843 C 2.116,3.944 0.95,-0.231 0,-3.511 Z"
             style="fill:#f1ae1d;fill-opacity:1;fill-rule:nonzero;stroke:none"
             id="path40" />
        </g>
        <g
           id="g42"
           transform="translate(617.7021,733.271)">
          <path
             d="m 0,0 c 2.521,-4.902 6.807,-7.763 11.542,-8.82 7.047,-1.651 8.766,-2.054 8.766,-2.054 0,0 0.028,0.089 0.068,0.218 0.685,-0.161 0.931,-0.219 0.931,-0.219 0,0 2.783,8.916 5.12,18.199 2.381,9.248 4.3,18.846 4.3,18.846 l -0.022,0.008 c 1.101,6.106 0.126,10.715 -1.927,14.262 -3.234,5.677 -9.116,8.677 -14.615,9.733 -4.021,0.878 -6.69,1.04 -8.241,1.221 -1.555,0.164 -2.065,0.218 -2.065,0.218 0,0 -0.003,-0.039 -0.006,-0.105 -0.723,0.076 -0.994,0.105 -0.994,0.105 0,0 -0.134,-2.386 -0.336,-5.967 C 2.305,42.095 1.944,37.382 1.347,32.491 0.254,22.816 -1.333,13.448 -1.333,13.448 l 0.021,-0.005 C -2.117,7.579 -1.515,3.211 0,0"
             style="fill:#f1ae1d;fill-opacity:1;fill-rule:nonzero;stroke:none"
             id="path44" />
        </g>
        <g
           id="g46"
           transform="translate(585.1426,782.561)">
          <path
             d="m 0,0 c 0.383,-9.546 0.229,-18.858 0.229,-18.858 l 0.025,-0.001 c 0.127,-5.732 1.176,-10.312 3.093,-13.348 2.974,-4.922 7.871,-6.685 12.803,-6.867 3.651,-0.125 5.727,-0.641 7.083,-0.746 1.324,-0.177 1.757,-0.235 1.757,-0.235 0,0 0.009,0.049 0.023,0.13 0.717,-0.096 0.977,-0.13 0.977,-0.13 0,0 1.624,9.444 2.631,18.981 0.945,9.319 1.38,18.921 1.38,18.921 l -0.019,0.002 c 0.101,5.984 -1.453,10.55 -3.911,13.934 -1.958,2.658 -4.428,4.691 -7.193,5.887 -2.82,1.08 -5.831,1.548 -8.686,1.567 -8.359,0.017 -10.398,0.021 -10.398,0.021 v -0.002 c -0.729,0.002 -1.001,0.002 -1.001,0.002 0,0 0.876,-9.735 1.207,-19.258"
             style="fill:#f1ae1d;fill-opacity:1;fill-rule:nonzero;stroke:none"
             id="path48" />
        </g>
        <g
           id="g50"
           transform="translate(552.1094,775.6406)">
          <path
             d="m 0,0 0.021,0.002 c 0.893,-5.834 2.711,-9.83 5.078,-12.457 3.522,-3.6 7.886,-5.399 12.373,-5.295 0.716,-0.028 1.437,-0.024 2.161,0.046 7.233,0.442 8.997,0.55 8.997,0.55 0,0 0.15,9.316 -0.237,18.863 -0.333,9.526 -1.215,19.258 -1.215,19.258 l -0.023,0.002 c -0.702,6.092 -2.845,10.515 -5.856,13.224 -4.14,3.939 -9.651,5.326 -14.71,5.22 -1.055,0.02 -2.096,-0.025 -3.107,-0.13 -4.144,-0.444 -6.648,-0.626 -8.214,-1.012 -1.54,-0.296 -2.044,-0.394 -2.044,-0.394 0,0 2.321,-9.217 3.935,-18.908 C -1.138,9.408 0,0 0,0"
             style="fill:#f1ae1d;fill-opacity:1;fill-rule:nonzero;stroke:none"
             id="path52" />
        </g>
        <g
           id="g54"
           transform="translate(515.9609,788.9043)">
          <path
             d="m 0,0 c 1.015,-3.303 1.611,-5.722 1.611,-5.722 l 0.025,0.003 c 1.704,-5.759 4.047,-9.588 6.744,-11.995 2.949,-2.66 6.362,-3.57 9.77,-3.477 1.84,-0.059 3.692,0.195 5.481,0.648 7.015,1.166 8.725,1.451 8.725,1.451 0,0 -1.142,9.411 -2.851,18.974 -1.682,9.426 -4.023,18.589 -4.023,18.589 l -0.018,-0.004 c -1.605,5.741 -4.394,9.648 -7.715,12.162 -3.561,2.687 -7.696,3.862 -11.7,3.765 -2.27,0.065 -4.516,-0.279 -6.611,-0.997 -8.02,-2.445 -9.977,-3.043 -9.977,-3.043 0,0 3.587,-9.034 6.6,-18.022 C -2.415,7.836 -1.005,3.354 0,0"
             style="fill:#f1ae1d;fill-opacity:1;fill-rule:nonzero;stroke:none"
             id="path56" />
        </g>
        <g
           id="g58"
           transform="translate(482.2598,785.2588)">
          <path
             d="m 0,0 0.02,0.008 c 2.497,-5.303 5.369,-8.571 8.384,-10.369 2.811,-2.013 5.769,-2.739 8.661,-2.642 2.342,-0.081 4.658,0.403 6.832,1.232 6.834,2.565 8.501,3.191 8.501,3.191 0,0 -2.503,8.926 -5.578,17.92 -3.017,8.988 -6.607,18.021 -6.607,18.021 L 20.19,27.355 c -2.393,5.563 -5.695,9.167 -9.324,11.324 -2.784,1.392 -5.748,1.922 -8.654,1.856 -3.474,0.09 -6.904,-0.709 -9.882,-1.974 -7.603,-3.263 -9.458,-4.059 -9.458,-4.059 0,0 4.826,-8.599 9.081,-17.231 C -3.737,8.64 0,0 0,0"
             style="fill:#f1ae1d;fill-opacity:1;fill-rule:nonzero;stroke:none"
             id="path60" />
        </g>
        <g
           id="g62"
           transform="translate(443.8384,787.748)">
          <path
             d="m 0,0 c 1.895,-3.063 3.157,-5.104 3.157,-5.104 l 0.022,0.01 c 3.24,-5.002 6.554,-7.961 9.807,-9.452 2.05,-0.954 4.083,-1.279 6.059,-1.211 3.348,-0.122 6.555,0.982 9.427,2.272 6.416,3.214 7.981,3.998 7.981,3.998 0,0 -3.742,8.644 -8.058,17.274 -2.141,4.315 -4.397,8.623 -6.141,11.852 -1.745,3.28 -2.943,5.236 -2.943,5.236 l -0.016,-0.008 c -3.139,5.012 -6.902,7.922 -10.787,9.342 -2.25,0.82 -4.533,1.145 -6.763,1.096 -4.243,0.126 -8.337,-1.156 -11.683,-3.076 -6.998,-4.725 -8.704,-5.877 -8.704,-5.877 0,0 5.967,-7.597 11.362,-15.311 C -4.579,7.257 -1.913,2.999 0,0"
             style="fill:#f1ae1d;fill-opacity:1;fill-rule:nonzero;stroke:none"
             id="path64" />
        </g>
        <g
           id="g66"
           transform="translate(399.9429,789.2134)">
          <path
             d="m 0,0 c 6.557,-7.008 12.558,-14.191 12.558,-14.191 l 0.016,0.012 c 3.864,-4.303 7.524,-6.597 11.025,-7.866 1.716,-0.576 3.371,-0.796 4.954,-0.735 3.879,-0.141 7.354,1.438 10.264,3.718 2.855,2.215 4.662,3.719 5.791,4.335 1.119,0.711 1.485,0.944 1.485,0.944 0,0 -4.962,8.266 -10.39,15.825 -5.399,7.713 -11.37,15.306 -11.37,15.306 l -0.019,-0.012 c -3.852,4.622 -8.027,7.097 -12.111,8.089 -1.482,0.417 -2.929,0.563 -4.334,0.517 -5.223,0.194 -9.894,-2.512 -13.525,-5.398 -6.351,-5.377 -7.902,-6.689 -7.902,-6.689 0,0 7.054,-6.829 13.558,-13.855"
             style="fill:#f1ae1d;fill-opacity:1;fill-rule:nonzero;stroke:none"
             id="path68" />
        </g>
        <g
           id="g70"
           transform="translate(379.4858,762.4048)">
          <path
             d="m 0,0 0.018,0.016 c 4.515,-3.853 8.517,-5.724 12.045,-6.201 0.802,-0.117 1.573,-0.146 2.323,-0.115 2.269,-0.091 4.316,0.442 6.223,1.23 2.317,0.819 4.351,2.217 6.075,3.889 5.205,4.987 6.475,6.203 6.475,6.203 0,0 -6.006,7.186 -12.569,14.191 C 14.081,26.238 7.023,33.062 7.023,33.062 L 7.01,33.05 c -4.54,4.198 -8.875,5.672 -13.015,5.97 -0.519,0.029 -1.031,0.027 -1.539,0.012 -6.31,0.165 -11.818,-3.054 -15.583,-6.98 -2.88,-2.972 -4.404,-5.236 -5.426,-6.379 -0.982,-1.215 -1.303,-1.612 -1.303,-1.612 0,0 7.823,-5.501 15.243,-11.49 C -7.043,6.412 0,0 0,0"
             style="fill:#f1ae1d;fill-opacity:1;fill-rule:nonzero;stroke:none"
             id="path72" />
        </g>
        <g
           id="g74"
           transform="translate(293.4258,735.5903)">
          <path
             d="m 0,0 v 0.37 c 3.063,-1.133 6.672,-2.481 10.441,-4.11 5.504,-2.312 10.837,-4.763 14.151,-6.32 v -0.471 c 1.497,-0.708 2.389,-1.141 2.389,-1.141 l 0.013,0.02 c 4.416,-1.975 8.123,-2.762 11.253,-2.692 1.073,-0.038 2.088,0.013 3.035,0.16 5.435,1.024 9.314,4.434 11.692,8.625 3.57,6.287 4.441,7.82 4.441,7.82 0,0 -7.784,5.178 -16.046,10.031 -8.216,4.884 -16.897,9.425 -16.897,9.425 L 24.461,21.701 C 18.896,24.485 14.276,24.744 10.256,23.823 6.007,22.824 2.578,20.353 0,17.342 v 1.095 C -1.732,16.659 -3.142,14.631 -4.207,12.568 -6.195,8.973 -6.997,6.348 -7.656,4.964 -8.254,3.521 -8.45,3.049 -8.45,3.049 c 0,0 2.255,-0.803 5.637,-2.008 C -1.934,0.715 -0.99,0.368 0,0"
             style="fill:#f1ae1d;fill-opacity:1;fill-rule:nonzero;stroke:none"
             id="path76" />
        </g>
        <g
           id="g78"
           transform="translate(293.4258,699.5122)">
          <path
             d="M 0,0 V 0.3 C 1.858,-0.255 2.993,-0.609 2.993,-0.609 L 3,-0.59 c 5.5,-1.466 10.135,-1.69 13.632,-0.739 5.577,1.459 8.661,5.647 10.244,10.326 1.086,3.537 2.19,5.357 2.671,6.631 0.544,1.217 0.723,1.616 0.723,1.616 0,0 -2.162,1.023 -5.401,2.553 -3.228,1.478 -7.746,3.572 -12.042,5.264 -8.688,3.537 -17.788,6.667 -17.788,6.667 l -0.011,-0.02 c -3.059,0.955 -5.854,1.329 -8.404,1.27 -2.611,0.059 -4.978,-0.329 -7.084,-1.074 -6.438,-2.069 -9.962,-7.697 -11.597,-13.15 -2.398,-7.983 -2.983,-9.93 -2.983,-9.93 0,0 9.599,-1.926 18.843,-4.31 C -9.562,2.841 -3.135,0.947 0,0"
             style="fill:#f1ae1d;fill-opacity:1;fill-rule:nonzero;stroke:none"
             id="path80" />
        </g>
        <g
           id="g82"
           transform="translate(255.4541,673.0718)">
          <path
             d="m 0,0 c 9.674,-1.092 19.043,-2.678 19.043,-2.678 l 0.006,0.023 c 1.826,-0.25 3.49,-0.349 5.036,-0.342 3.893,-0.111 6.979,0.506 9.406,1.65 4.902,2.52 7.768,6.813 8.82,11.543 1.651,7.047 2.053,8.764 2.053,8.764 0,0 -8.915,2.784 -18.2,5.118 -9.247,2.38 -18.847,4.299 -18.847,4.299 L 7.312,28.359 c -1.827,0.329 -3.505,0.453 -5.076,0.437 -4.142,0.134 -7.477,-0.797 -10.187,-2.364 -5.674,-3.23 -8.672,-9.109 -9.73,-14.612 -0.88,-4.023 -1.042,-6.694 -1.223,-8.245 -0.164,-1.555 -0.218,-2.065 -0.218,-2.065 0,0 2.387,-0.134 5.967,-0.336 C -9.605,0.958 -4.892,0.597 0,0"
             style="fill:#f1ae1d;fill-opacity:1;fill-rule:nonzero;stroke:none"
             id="path84" />
        </g>
        <g
           id="g86"
           transform="translate(207.3042,601.3999)">
          <path
             d="m 0,0 c 0.296,-1.54 0.394,-2.045 0.394,-2.045 0,0 0.342,0.087 0.955,0.235 0.031,-0.165 0.045,-0.235 0.045,-0.235 0,0 9.218,2.323 18.908,3.937 9.561,1.703 18.969,2.841 18.969,2.841 L 39.27,4.757 c 5.835,0.897 9.829,2.708 12.456,5.075 3.91,3.826 5.727,8.649 5.248,13.532 -0.441,7.235 -0.549,8.997 -0.549,8.997 0,0 -1.941,0.031 -4.942,0.029 C 47.881,32.396 42.27,32.356 36.561,32.123 27.035,31.789 17.3,30.907 17.3,30.907 l 10e-4,-0.019 C 11.21,30.187 6.787,28.042 4.078,25.031 -0.414,20.313 -1.586,13.809 -1.011,8.219 -0.568,4.072 -0.387,1.566 0,0"
             style="fill:#f1ae1d;fill-opacity:1;fill-rule:nonzero;stroke:none"
             id="path88" />
        </g>
        <g
           id="g90"
           transform="translate(201.957,559.4497)">
          <path
             d="M 0,0 C 0,0 0.317,0.126 0.893,0.351 0.967,0.106 1,0 1,0 c 0,0 9.036,3.585 18.023,6.599 4.495,1.523 8.978,2.933 12.332,3.939 3.303,1.015 5.723,1.611 5.723,1.611 l -0.004,0.02 c 5.758,1.701 9.588,4.051 11.994,6.748 3.839,4.254 4.037,9.467 2.83,14.251 -1.166,7.015 -1.45,8.726 -1.45,8.726 0,0 -0.352,-0.043 -0.979,-0.123 -0.013,0.082 -0.021,0.124 -0.021,0.124 0,0 -9.412,-1.143 -18.974,-2.85 -9.427,-1.68 -18.59,-4.02 -18.59,-4.02 l 0.004,-0.024 C 6.147,33.397 2.24,30.609 -0.274,27.288 -4.256,22.007 -4.928,15.468 -3.042,9.971 -0.597,1.956 0,0 0,0"
             style="fill:#f1ae1d;fill-opacity:1;fill-rule:nonzero;stroke:none"
             id="path92" />
        </g>
        <g
           id="g94"
           transform="translate(202.2617,519.6035)">
          <path
             d="m 0,0 c 0.137,-0.32 0.193,-0.45 0.193,-0.45 0,0 8.599,4.827 17.232,9.081 8.63,4.311 17.271,8.049 17.271,8.049 l -0.008,0.023 c 5.302,2.501 8.571,5.365 10.369,8.381 3.402,4.751 3.149,9.937 1.41,14.493 -2.566,6.835 -3.191,8.5 -3.191,8.5 0,0 -0.322,-0.09 -0.903,-0.257 -0.067,0.178 -0.097,0.258 -0.097,0.258 0,0 -8.926,-2.505 -17.92,-5.58 C 15.367,39.479 6.334,35.888 6.334,35.888 L 6.341,35.87 C 0.777,33.476 -2.826,30.174 -4.983,26.544 -7.875,20.766 -7.071,14.209 -4.866,9.013 c 3.263,-7.607 4.059,-9.462 4.059,-9.462 0,0 0.291,0.163 0.807,0.449"
             style="fill:#f1ae1d;fill-opacity:1;fill-rule:nonzero;stroke:none"
             id="path96" />
        </g>
        <g
           id="g98"
           transform="translate(207.771,479.7344)">
          <path
             d="m 0,0 c 0.245,-0.363 0.345,-0.512 0.345,-0.512 0,0 7.598,5.968 15.311,11.362 3.784,2.702 8.042,5.368 11.041,7.28 3.063,1.894 5.104,3.157 5.104,3.157 l -0.01,0.019 c 5.002,3.236 7.961,6.557 9.452,9.811 2.396,5.148 0.867,10.182 -1.06,14.485 -3.215,6.418 -3.999,7.981 -3.999,7.981 0,0 -0.295,-0.127 -0.82,-0.358 -0.128,0.256 -0.18,0.359 -0.18,0.359 0,0 -8.644,-3.741 -17.273,-8.056 C 13.595,43.388 9.286,41.132 6.058,39.39 2.779,37.645 0.821,36.447 0.821,36.447 l 0.01,-0.022 c -5.014,-3.139 -7.923,-6.902 -9.344,-10.786 -2.246,-6.171 -0.803,-12.603 1.982,-17.45 4.724,-6.993 5.876,-8.7 5.876,-8.7 0,0 0.24,0.189 0.655,0.511"
             style="fill:#f1ae1d;fill-opacity:1;fill-rule:nonzero;stroke:none"
             id="path100" />
        </g>
        <g
           id="g102"
           transform="translate(650.1738,311.1416)">
          <path
             d="M 0,0 V 0.534 C -3.153,2.229 -8.906,5.37 -14.455,8.674 -22.713,13.53 -30.49,18.707 -30.49,18.707 l -0.012,-0.017 c -4.88,2.965 -9.199,4.377 -12.855,4.501 -0.319,0.011 -0.631,0.006 -0.941,-0.004 -0.019,10e-4 -0.04,0.004 -0.059,0.005 -5.769,0.179 -9.908,-2.96 -12.745,-6.993 -2.044,-3.068 -3.544,-4.636 -4.396,-5.659 -0.867,-1.011 -1.149,-1.342 -1.149,-1.342 0,0 1.787,-1.591 4.466,-3.977 2.716,-2.392 6.393,-5.536 10.05,-8.383 7.351,-5.843 15.212,-11.411 15.212,-11.411 l 0.016,0.016 c 4.71,-3.136 9.147,-4.342 13.147,-4.281 0.582,-0.022 1.156,-0.023 1.721,0.007 6.777,0.157 11.675,4.672 14.81,9.391 1.366,2.093 2.416,3.705 3.225,4.945 v 1.533 c 1.089,1.67 1.436,2.201 1.436,2.201 0,0 -0.528,0.276 -1.436,0.761"
             style="fill:#f1ae1d;fill-opacity:1;fill-rule:nonzero;stroke:none"
             id="path104" />
        </g>
        <g
           id="g106"
           transform="translate(747.7939,437.2773)">
          <path
             d="m 0,0 c 0,0 -9.735,-0.875 -19.259,-1.205 -5.157,-0.207 -10.233,-0.257 -13.822,-0.26 -2.476,0.005 -4.036,0.029 -4.036,0.029 v -0.011 c -0.638,0.007 -0.999,0.012 -0.999,0.012 v -0.021 c -5.73,-0.122 -10.315,-1.178 -13.35,-3.096 -4.923,-2.974 -6.681,-7.865 -6.867,-12.803 -0.124,-3.651 -0.642,-5.727 -0.747,-7.083 -0.177,-1.324 -0.234,-1.757 -0.234,-1.757 0,0 9.443,-1.625 18.981,-2.632 9.318,-0.947 18.92,-1.384 18.92,-1.384 l 0.004,0.024 c 0.129,-0.002 0.247,0.006 0.375,0.006 0.388,-0.019 0.621,-0.03 0.621,-0.03 l 0.004,0.023 c 5.983,-0.101 10.55,1.454 13.932,3.91 2.661,1.961 4.695,4.433 5.891,7.2 1.079,2.821 1.548,5.832 1.565,8.684 C 0.996,-2.039 1,0 1,0 1,0 0.642,-0.032 0,-0.087 Z"
             style="fill:#f1ae1d;fill-opacity:1;fill-rule:nonzero;stroke:none"
             id="path108" />
        </g>
        <g
           id="g110"
           transform="translate(233.0034,453.9658)">
          <path
             d="m 0,0 c 7.009,6.559 14.191,12.558 14.191,12.558 l -0.014,0.019 c 4.303,3.867 6.599,7.522 7.868,11.022 1.842,5.487 0.045,10.357 -2.984,14.218 -2.215,2.855 -3.719,4.662 -4.335,5.79 -0.711,1.119 -0.944,1.486 -0.944,1.486 0,0 -0.265,-0.159 -0.721,-0.438 -0.198,0.312 -0.278,0.439 -0.278,0.439 0,0 -8.266,-4.963 -15.825,-10.394 -7.712,-5.398 -15.306,-11.371 -15.306,-11.371 l 0.012,-0.015 c -4.623,-3.852 -7.098,-8.027 -8.089,-12.111 -1.846,-6.56 1.39,-12.463 4.881,-16.855 5.377,-6.355 6.689,-7.906 6.689,-7.906 0,0 0.199,0.204 0.535,0.549 0.338,-0.398 0.465,-0.55 0.465,-0.55 0,0 6.829,7.055 13.855,13.559"
             style="fill:#f1ae1d;fill-opacity:1;fill-rule:nonzero;stroke:none"
             id="path112" />
        </g>
        <g
           id="g114"
           transform="translate(247.2402,418.8984)">
          <path
             d="m 0,0 c 6.159,7.57 12.571,14.613 12.571,14.613 l -0.014,0.016 c 3.855,4.511 5.722,8.52 6.199,12.048 0.412,2.808 -0.177,5.272 -1.115,7.543 -0.818,2.316 -2.217,4.35 -3.89,6.079 -4.987,5.204 -6.204,6.473 -6.204,6.473 0,0 -0.206,-0.172 -0.552,-0.465 -0.324,0.338 -0.447,0.465 -0.447,0.465 0,0 -7.185,-6.003 -14.192,-12.566 -7.025,-6.507 -13.849,-13.564 -13.849,-13.564 l 0.014,-0.018 c -4.199,-4.54 -5.672,-8.874 -5.97,-13.016 -0.37,-6.54 2.934,-12.256 6.969,-16.125 2.972,-2.878 5.234,-4.402 6.378,-5.422 1.213,-0.981 1.611,-1.302 1.611,-1.302 0,0 0.136,0.192 0.364,0.512 0.46,-0.371 0.636,-0.513 0.636,-0.513 0,0 5.501,7.823 11.491,15.242"
             style="fill:#f1ae1d;fill-opacity:1;fill-rule:nonzero;stroke:none"
             id="path116" />
        </g>
        <g
           id="g118"
           transform="translate(266.7915,386.4961)">
          <path
             d="m 0,0 c 4.856,8.259 10.033,16.035 10.033,16.035 l -0.018,0.015 c 2.962,4.884 4.378,9.196 4.504,12.852 0.177,5.768 -2.965,9.914 -6.994,12.744 -3.069,2.044 -4.637,3.545 -5.66,4.398 -1.01,0.865 -1.342,1.148 -1.342,1.148 0,0 -0.161,-0.181 -0.431,-0.485 -0.41,0.352 -0.568,0.486 -0.568,0.486 0,0 -1.591,-1.787 -3.977,-4.468 -2.392,-2.715 -5.535,-6.393 -8.382,-10.05 -5.843,-7.353 -11.41,-15.215 -11.41,-15.215 l 0.015,-0.012 c -3.326,-4.993 -4.499,-9.684 -4.274,-13.869 0.154,-6.772 4.668,-11.667 9.388,-14.807 6.979,-4.551 8.681,-5.662 8.681,-5.662 0,0 0.094,0.179 0.256,0.485 0.538,-0.351 0.744,-0.486 0.744,-0.486 0,0 4.547,8.68 9.435,16.891"
             style="fill:#f1ae1d;fill-opacity:1;fill-rule:nonzero;stroke:none"
             id="path120" />
        </g>
        <g
           id="g122"
           transform="translate(295.7905,369.1279)">
          <path
             d="m 0,0 v 2.142 c 0.925,1.966 1.507,3.163 1.507,3.163 l -0.018,0.01 c 2.423,5.409 3.076,9.775 2.53,13.291 -0.414,2.194 -1.229,4.121 -2.314,5.81 0.156,0.254 0.321,0.499 0.496,0.734 -1.551,2.147 -3.558,3.869 -5.808,5.148 -6.287,3.57 -7.82,4.44 -7.82,4.44 0,0 -0.1,-0.15 -0.273,-0.413 -0.528,0.3 -0.727,0.413 -0.727,0.413 0,0 -5.178,-7.782 -10.031,-16.043 C -27.344,10.479 -31.886,1.8 -31.886,1.8 l 0.018,-0.014 c -2.782,-5.566 -3.042,-10.185 -2.121,-14.206 1.498,-6.364 6.288,-10.902 11.258,-13.466 3.594,-1.985 6.218,-2.787 7.602,-3.446 1.441,-0.598 1.914,-0.794 1.914,-0.794 0,0 0.047,0.133 0.128,0.361 0.631,-0.261 0.872,-0.361 0.872,-0.361 0,0 0.803,2.255 2.008,5.638 1.259,3.396 2.82,7.714 4.781,12.254 C -3.52,-7.696 -1.517,-3.272 0,0"
             style="fill:#f1ae1d;fill-opacity:1;fill-rule:nonzero;stroke:none"
             id="path124" />
        </g>
        <g
           id="g126"
           transform="translate(320.3823,339.4619)">
          <path
             d="M 0,0 C 1.598,5.708 2.932,9.981 2.932,9.981 L 2.91,9.989 C 4.374,15.491 4.603,20.123 3.652,23.62 2.964,26.247 1.666,28.315 0,29.94 v -1.076 c -1.998,2.422 -4.741,4.009 -7.673,4.999 -3.538,1.086 -5.357,2.19 -6.633,2.671 -1.216,0.544 -1.616,0.723 -1.616,0.723 0,0 -1.021,-2.161 -2.552,-5.402 -1.478,-3.227 -3.572,-7.746 -5.263,-12.042 -3.535,-8.689 -6.665,-17.79 -6.665,-17.79 l 0.017,-0.007 c -1.786,-5.719 -1.591,-10.545 -0.196,-14.489 2.066,-6.433 7.69,-9.957 13.147,-11.593 7.986,-2.401 9.934,-2.986 9.934,-2.986 0,0 1.925,9.598 4.309,18.843 C -2.116,-3.944 -0.95,0.23 0,3.511 Z"
             style="fill:#f1ae1d;fill-opacity:1;fill-rule:nonzero;stroke:none"
             id="path128" />
        </g>
        <g
           id="g130"
           transform="translate(350.4893,341.9697)">
          <path
             d="m 0,0 c -2.52,4.902 -6.807,7.764 -11.542,8.821 -7.047,1.651 -8.766,2.053 -8.766,2.053 0,0 -0.028,-0.089 -0.067,-0.218 -0.686,0.161 -0.932,0.219 -0.932,0.219 0,0 -2.783,-8.915 -5.119,-18.199 -2.381,-9.247 -4.301,-18.846 -4.301,-18.846 l 0.022,-0.008 c -1.1,-6.106 -0.126,-10.715 1.927,-14.261 3.234,-5.677 9.116,-8.677 14.615,-9.734 4.021,-0.878 6.691,-1.04 8.241,-1.221 1.555,-0.164 2.065,-0.217 2.065,-0.217 0,0 0.002,0.038 0.006,0.104 0.724,-0.076 0.994,-0.105 0.994,-0.105 0,0 0.134,2.386 0.336,5.967 0.216,3.55 0.577,8.264 1.175,13.154 1.092,9.676 2.679,19.044 2.679,19.044 l -0.021,0.005 C 2.117,-7.578 1.515,-3.21 0,0"
             style="fill:#f1ae1d;fill-opacity:1;fill-rule:nonzero;stroke:none"
             id="path132" />
        </g>
        <g
           id="g134"
           transform="translate(383.0488,292.6797)">
          <path
             d="m 0,0 c -0.383,9.546 -0.229,18.858 -0.229,18.858 l -0.025,0.001 c -0.126,5.732 -1.175,10.313 -3.093,13.348 -2.975,4.923 -7.871,6.686 -12.803,6.867 -3.651,0.125 -5.726,0.641 -7.084,0.746 -1.323,0.177 -1.757,0.236 -1.757,0.236 0,0 -0.008,-0.049 -0.022,-0.131 -0.717,0.096 -0.977,0.131 -0.977,0.131 0,0 -1.624,-9.445 -2.631,-18.982 -0.945,-9.318 -1.38,-18.921 -1.38,-18.921 l 0.018,-0.002 c -0.1,-5.983 1.454,-10.55 3.911,-13.933 1.958,-2.658 4.429,-4.692 7.194,-5.888 2.821,-1.079 5.832,-1.547 8.686,-1.566 8.359,-0.018 10.398,-0.022 10.398,-0.022 v 0.002 c 0.729,-0.002 1.001,-0.002 1.001,-0.002 0,0 -0.876,9.736 -1.207,19.258"
             style="fill:#f1ae1d;fill-opacity:1;fill-rule:nonzero;stroke:none"
             id="path136" />
        </g>
        <g
           id="g138"
           transform="translate(416.082,299.6006)">
          <path
             d="m 0,0 -0.021,-0.002 c -0.894,5.834 -2.711,9.83 -5.078,12.456 -3.523,3.601 -7.886,5.4 -12.372,5.295 -0.717,0.029 -1.438,0.024 -2.161,-0.046 -7.234,-0.441 -8.998,-0.55 -8.998,-0.55 0,0 -0.15,-9.315 0.237,-18.862 0.333,-9.526 1.215,-19.259 1.215,-19.259 l 0.022,-0.002 c 0.702,-6.091 2.846,-10.514 5.858,-13.223 4.139,-3.94 9.651,-5.326 14.711,-5.22 1.054,-0.02 2.094,0.025 3.104,0.13 4.145,0.444 6.65,0.626 8.216,1.012 1.539,0.296 2.044,0.394 2.044,0.394 0,0 -2.322,9.217 -3.936,18.907 C 1.138,-9.408 0,0 0,0"
             style="fill:#f1ae1d;fill-opacity:1;fill-rule:nonzero;stroke:none"
             id="path140" />
        </g>
        <g
           id="g142"
           transform="translate(452.23,286.3369)">
          <path
             d="M 0,0 C -1.014,3.304 -1.611,5.722 -1.611,5.722 L -1.635,5.719 c -1.704,5.759 -4.048,9.588 -6.744,11.995 -2.95,2.66 -6.363,3.57 -9.771,3.476 -1.84,0.06 -3.691,-0.195 -5.481,-0.647 -7.015,-1.166 -8.725,-1.451 -8.725,-1.451 0,0 1.143,-9.411 2.852,-18.974 1.681,-9.426 4.023,-18.589 4.023,-18.589 l 0.018,0.004 c 1.604,-5.741 4.394,-9.648 7.714,-12.163 3.562,-2.687 7.698,-3.861 11.702,-3.764 2.269,-0.065 4.515,0.279 6.61,0.997 8.019,2.445 9.976,3.043 9.976,3.043 0,0 -3.586,9.035 -6.599,18.022 C 2.416,-7.837 1.006,-3.354 0,0"
             style="fill:#f1ae1d;fill-opacity:1;fill-rule:nonzero;stroke:none"
             id="path144" />
        </g>
        <g
           id="g146"
           transform="translate(485.9316,289.9824)">
          <path
             d="m 0,0 -0.02,-0.008 c -2.497,5.303 -5.369,8.571 -8.384,10.369 -2.81,2.012 -5.768,2.739 -8.661,2.642 -2.342,0.082 -4.657,-0.403 -6.833,-1.232 -6.833,-2.565 -8.501,-3.191 -8.501,-3.191 0,0 2.505,-8.926 5.578,-17.92 3.018,-8.988 6.608,-18.021 6.608,-18.021 l 0.022,0.006 c 2.394,-5.563 5.696,-9.166 9.325,-11.325 2.784,-1.391 5.748,-1.921 8.654,-1.855 3.474,-0.091 6.904,0.709 9.882,1.973 7.603,3.263 9.458,4.059 9.458,4.059 0,0 -4.826,8.6 -9.081,17.232 C 3.737,-8.641 0,0 0,0"
             style="fill:#f1ae1d;fill-opacity:1;fill-rule:nonzero;stroke:none"
             id="path148" />
        </g>
        <g
           id="g150"
           transform="translate(524.3535,287.4932)">
          <path
             d="m 0,0 c -1.896,3.063 -3.158,5.104 -3.158,5.104 l -0.021,-0.01 c -3.241,5.002 -6.554,7.961 -9.807,9.452 -2.051,0.954 -4.083,1.279 -6.06,1.211 -3.348,0.122 -6.555,-0.982 -9.426,-2.272 -6.417,-3.214 -7.982,-3.998 -7.982,-3.998 0,0 3.742,-8.644 8.059,-17.274 2.141,-4.315 4.396,-8.623 6.14,-11.852 1.745,-3.28 2.943,-5.237 2.943,-5.237 l 0.017,0.009 c 3.139,-5.012 6.902,-7.922 10.786,-9.343 2.25,-0.819 4.533,-1.144 6.764,-1.095 4.242,-0.126 8.337,1.156 11.683,3.076 6.997,4.725 8.704,5.876 8.704,5.876 0,0 -5.967,7.598 -11.362,15.312 C 4.578,-7.257 1.912,-2.999 0,0"
             style="fill:#f1ae1d;fill-opacity:1;fill-rule:nonzero;stroke:none"
             id="path152" />
        </g>
        <g
           id="g154"
           transform="translate(568.249,286.0273)">
          <path
             d="m 0,0 c -6.558,7.009 -12.558,14.191 -12.558,14.191 l -0.016,-0.012 c -3.864,4.303 -7.525,6.597 -11.026,7.866 -1.715,0.576 -3.371,0.797 -4.954,0.735 -3.879,0.142 -7.353,-1.437 -10.263,-3.718 -2.856,-2.214 -4.662,-3.719 -5.791,-4.335 -1.12,-0.711 -1.486,-0.944 -1.486,-0.944 0,0 4.962,-8.265 10.391,-15.824 5.398,-7.714 11.369,-15.307 11.369,-15.307 l 0.02,0.012 c 3.851,-4.622 8.027,-7.097 12.111,-8.089 1.482,-0.417 2.929,-0.563 4.334,-0.516 5.223,-0.195 9.893,2.511 13.524,5.398 6.352,5.377 7.903,6.689 7.903,6.689 0,0 -7.055,6.829 -13.558,13.854"
             style="fill:#f1ae1d;fill-opacity:1;fill-rule:nonzero;stroke:none"
             id="path156" />
        </g>
        <g
           id="g158"
           transform="translate(588.7061,312.8359)">
          <path
             d="m 0,0 -0.019,-0.016 c -4.514,3.854 -8.516,5.725 -12.044,6.202 -0.802,0.117 -1.574,0.145 -2.324,0.115 -2.268,0.091 -4.316,-0.443 -6.223,-1.231 -2.316,-0.818 -4.351,-2.216 -6.075,-3.889 -5.205,-4.987 -6.474,-6.202 -6.474,-6.202 0,0 6.006,-7.186 12.568,-14.192 6.51,-7.025 13.568,-13.848 13.568,-13.848 l 0.013,0.011 c 4.539,-4.197 8.874,-5.672 13.015,-5.97 0.518,-0.029 1.031,-0.027 1.539,-0.011 6.31,-0.165 11.817,3.054 15.583,6.979 2.88,2.973 4.404,5.236 5.426,6.379 0.981,1.215 1.302,1.612 1.302,1.612 0,0 -7.823,5.501 -15.243,11.491 C 7.043,-6.411 0,0 0,0"
             style="fill:#f1ae1d;fill-opacity:1;fill-rule:nonzero;stroke:none"
             id="path160" />
        </g>
        <g
           id="g162"
           transform="translate(674.7656,339.6504)">
          <path
             d="m 0,0 v -0.37 c -3.063,1.133 -6.672,2.481 -10.441,4.11 -5.504,2.312 -10.837,4.764 -14.151,6.321 v 0.47 c -1.498,0.708 -2.389,1.141 -2.389,1.141 l -0.013,-0.02 c -4.416,1.976 -8.124,2.762 -11.253,2.693 -1.074,0.038 -2.088,-0.014 -3.034,-0.16 -5.436,-1.025 -9.315,-4.435 -11.693,-8.625 -3.57,-6.288 -4.441,-7.821 -4.441,-7.821 0,0 7.784,-5.177 16.046,-10.03 8.217,-4.885 16.897,-9.426 16.897,-9.426 l 0.011,0.016 c 5.565,-2.783 10.186,-3.042 14.205,-2.121 4.249,0.999 7.679,3.469 10.256,6.48 v -1.095 c 1.732,1.779 3.142,3.806 4.207,5.869 1.987,3.595 2.79,6.22 3.449,7.604 0.598,1.443 0.794,1.915 0.794,1.915 0,0 -2.256,0.804 -5.637,2.008 C 1.934,-0.715 0.99,-0.367 0,0"
             style="fill:#f1ae1d;fill-opacity:1;fill-rule:nonzero;stroke:none"
             id="path164" />
        </g>
        <g
           id="g166"
           transform="translate(674.7656,375.7285)">
          <path
             d="M 0,0 V -0.3 C -1.858,0.256 -2.993,0.609 -2.993,0.609 L -3,0.591 c -5.5,1.466 -10.135,1.689 -13.632,0.738 -5.577,-1.459 -8.661,-5.646 -10.244,-10.325 -1.086,-3.537 -2.19,-5.358 -2.671,-6.632 -0.544,-1.217 -0.723,-1.616 -0.723,-1.616 0,0 2.162,-1.022 5.401,-2.553 3.228,-1.478 7.746,-3.572 12.042,-5.264 8.688,-3.537 17.788,-6.667 17.788,-6.667 l 0.011,0.021 c 3.059,-0.956 5.855,-1.33 8.405,-1.271 2.611,-0.058 4.977,0.33 7.083,1.074 6.437,2.069 9.962,7.697 11.597,13.15 2.398,7.983 2.982,9.931 2.982,9.931 0,0 -9.598,1.926 -18.842,4.309 C 9.562,-2.841 3.136,-0.947 0,0"
             style="fill:#f1ae1d;fill-opacity:1;fill-rule:nonzero;stroke:none"
             id="path168" />
        </g>
        <g
           id="g170"
           transform="translate(712.7373,402.1689)">
          <path
             d="m 0,0 c -9.674,1.093 -19.043,2.679 -19.043,2.679 l -0.006,-0.024 c -1.827,0.25 -3.491,0.35 -5.037,0.343 -3.892,0.11 -6.978,-0.507 -9.405,-1.651 -4.902,-2.52 -7.768,-6.813 -8.82,-11.542 -1.651,-7.048 -2.053,-8.765 -2.053,-8.765 0,0 8.916,-2.783 18.2,-5.118 9.247,-2.379 18.847,-4.299 18.847,-4.299 l 0.005,0.019 c 1.828,-0.329 3.505,-0.454 5.077,-0.438 4.141,-0.134 7.476,0.797 10.186,2.364 5.674,3.23 8.672,9.11 9.73,14.613 0.88,4.022 1.042,6.693 1.223,8.245 0.164,1.554 0.217,2.064 0.217,2.064 0,0 -2.386,0.135 -5.966,0.336 C 9.605,-0.957 4.892,-0.597 0,0"
             style="fill:#f1ae1d;fill-opacity:1;fill-rule:nonzero;stroke:none"
             id="path172" />
        </g>
        <g
           id="g174"
           transform="translate(760.8867,473.8408)">
          <path
             d="m 0,0 c -0.296,1.54 -0.394,2.045 -0.394,2.045 0,0 -0.341,-0.086 -0.955,-0.234 -0.031,0.165 -0.045,0.235 -0.045,0.235 0,0 -9.217,-2.323 -18.908,-3.938 -9.56,-1.703 -18.969,-2.841 -18.969,-2.841 l 10e-4,-0.024 c -5.834,-0.896 -9.829,-2.708 -12.456,-5.074 -3.91,-3.826 -5.726,-8.65 -5.248,-13.532 0.442,-7.236 0.55,-8.998 0.55,-8.998 0,0 1.944,-0.031 4.947,-0.029 3.602,-0.005 9.21,0.035 14.916,0.267 9.527,0.335 19.261,1.217 19.261,1.217 l -10e-4,0.018 c 6.091,0.701 10.515,2.846 13.224,5.857 4.492,4.719 5.664,11.222 5.089,16.812 C 0.568,-4.072 0.388,-1.565 0,0"
             style="fill:#f1ae1d;fill-opacity:1;fill-rule:nonzero;stroke:none"
             id="path176" />
        </g>
        <g
           id="g178"
           transform="translate(766.2344,515.7915)">
          <path
             d="M 0,0 C 0,0 -0.317,-0.126 -0.893,-0.351 -0.967,-0.106 -1,0 -1,0 c 0,0 -9.036,-3.585 -18.023,-6.599 -4.496,-1.523 -8.978,-2.933 -12.332,-3.939 -3.303,-1.015 -5.722,-1.611 -5.722,-1.611 l 0.003,-0.02 c -5.757,-1.701 -9.588,-4.051 -11.994,-6.748 -3.838,-4.254 -4.037,-9.467 -2.83,-14.251 1.166,-7.015 1.45,-8.726 1.45,-8.726 0,0 0.351,0.043 0.979,0.123 0.014,-0.082 0.021,-0.124 0.021,-0.124 0,0 9.412,1.143 18.974,2.85 9.427,1.679 18.589,4.02 18.589,4.02 l -0.004,0.024 c 5.743,1.604 9.649,4.392 12.163,7.713 3.982,5.281 4.654,11.82 2.769,17.317 C 0.597,-1.956 0,0 0,0"
             style="fill:#f1ae1d;fill-opacity:1;fill-rule:nonzero;stroke:none"
             id="path180" />
        </g>
        <g
           id="g182"
           transform="translate(770.7949,546.624)">
          <path
             d="m 0,0 c -3.263,7.607 -4.059,9.463 -4.059,9.463 0,0 -0.291,-0.163 -0.806,-0.449 -0.137,0.319 -0.194,0.449 -0.194,0.449 0,0 -8.599,-4.826 -17.231,-9.081 -8.63,-4.311 -17.272,-8.048 -17.272,-8.048 l 0.008,-0.023 c -5.301,-2.501 -8.57,-5.366 -10.368,-8.381 -3.402,-4.752 -3.148,-9.937 -1.41,-14.494 2.565,-6.834 3.19,-8.5 3.19,-8.5 0,0 0.324,0.091 0.904,0.257 0.066,-0.178 0.096,-0.257 0.096,-0.257 0,0 8.927,2.504 17.92,5.58 8.99,3.018 18.023,6.609 18.023,6.609 l -0.007,0.019 c 5.563,2.394 9.167,5.696 11.324,9.325 C 3.01,-11.752 2.205,-5.195 0,0"
             style="fill:#f1ae1d;fill-opacity:1;fill-rule:nonzero;stroke:none"
             id="path184" />
        </g>
        <g
           id="g186"
           transform="translate(760.4209,595.5068)">
          <path
             d="m 0,0 c -0.246,0.364 -0.346,0.511 -0.346,0.511 0,0 -7.597,-5.967 -15.311,-11.361 -3.783,-2.702 -8.041,-5.368 -11.04,-7.28 -3.063,-1.894 -5.104,-3.158 -5.104,-3.158 l 0.01,-0.018 c -5.003,-3.236 -7.962,-6.557 -9.453,-9.811 -2.396,-5.148 -0.867,-10.182 1.06,-14.485 3.215,-6.418 3.999,-7.981 3.999,-7.981 0,0 0.295,0.127 0.821,0.358 0.128,-0.256 0.179,-0.359 0.179,-0.359 0,0 8.644,3.741 17.274,8.056 4.315,2.14 8.624,4.396 11.852,6.138 3.28,1.745 5.238,2.943 5.238,2.943 l -0.01,0.021 c 5.013,3.14 7.922,6.903 9.344,10.787 2.246,6.171 0.802,12.603 -1.983,17.45 -4.723,6.993 -5.876,8.7 -5.876,8.7 C 0.654,0.511 0.414,0.322 0,0"
             style="fill:#f1ae1d;fill-opacity:1;fill-rule:nonzero;stroke:none"
             id="path188" />
        </g>
        <g
           id="g190"
           transform="translate(318.0176,764.0996)">
          <path
             d="m 0,0 v -0.535 c 3.154,-1.694 8.907,-4.835 14.456,-8.139 8.257,-4.856 16.035,-10.034 16.035,-10.034 l 0.011,0.018 c 4.88,-2.965 9.199,-4.377 12.855,-4.502 0.319,-0.01 0.631,-0.006 0.94,0.005 0.019,-10e-4 0.04,-0.005 0.06,-0.005 5.768,-0.179 9.908,2.959 12.745,6.993 2.044,3.068 3.544,4.636 4.396,5.659 0.867,1.01 1.15,1.341 1.15,1.341 0,0 -1.787,1.592 -4.468,3.978 C 55.465,-2.829 51.788,0.315 48.131,3.162 40.78,9.005 32.919,14.574 32.919,14.574 l -0.016,-0.018 c -4.71,3.137 -9.146,4.342 -13.147,4.282 C 19.174,18.86 18.6,18.861 18.035,18.831 11.257,18.674 6.36,14.159 3.225,9.44 1.859,7.346 0.809,5.735 0,4.495 V 2.962 C -1.089,1.292 -1.436,0.761 -1.436,0.761 -1.436,0.761 -0.908,0.485 0,0"
             style="fill:#f1ae1d;fill-opacity:1;fill-rule:nonzero;stroke:none"
             id="path192" />
        </g>
        <g
           id="g194"
           transform="translate(220.3975,637.9639)">
          <path
             d="M 0,0 C 0,0 9.735,0.875 19.259,1.205 24.406,1.412 29.472,1.461 33.06,1.464 35.547,1.46 37.117,1.435 37.117,1.435 V 1.447 C 37.755,1.44 38.116,1.435 38.116,1.435 v 0.021 c 5.73,0.122 10.315,1.178 13.35,3.095 4.923,2.975 6.681,7.866 6.867,12.804 0.125,3.65 0.642,5.727 0.747,7.083 0.176,1.324 0.234,1.757 0.234,1.757 0,0 -9.443,1.625 -18.981,2.632 -9.318,0.947 -18.92,1.384 -18.92,1.384 l -0.004,-0.024 c -0.128,0.002 -0.247,-0.007 -0.374,-0.006 -0.389,0.019 -0.622,0.03 -0.622,0.03 L 20.409,30.188 C 14.426,30.289 9.86,28.734 6.476,26.278 3.816,24.317 1.783,21.844 0.586,19.078 -0.494,16.257 -0.961,13.246 -0.98,10.394 -0.996,2.039 -1,0 -1,0 c 0,0 0.358,0.033 1,0.086 z"
             style="fill:#f1ae1d;fill-opacity:1;fill-rule:nonzero;stroke:none"
             id="path196" />
        </g>
        <g
           id="g198"
           transform="translate(681.3154,537.7793)">
          <path
             d="m 0,0 c -2.94,-0.099 -4.222,0.982 -4.573,4.001 -0.689,5.897 -1.796,11.745 -2.679,17.622 -1.324,8.816 -3.808,21.827 -5.127,30.773 -1.692,0.054 -3.386,-1.082 -5.078,-1.014 0.46,-1.441 1.725,-6.972 2.504,-11.473 1.126,-6.51 2.041,-13.056 3.023,-19.59 0.978,-6.503 1.921,-13.011 2.94,-19.929 h -29.531 c 1.673,11.234 3.242,21.764 4.813,32.295 0.676,4.523 1.414,9.039 2.018,13.572 0.153,1.154 0.429,4.473 0.931,5.155 -1.779,0.075 -3.559,0.145 -5.34,0.205 -2.525,-16.514 -4.989,-35.018 -7.454,-51.131 -0.356,0.264 -0.713,0.529 -1.068,0.793 -2.369,-1.668 -4.983,-3.081 -7.052,-5.061 -3.555,-3.401 -6.925,-7.028 -10.077,-10.806 -2.29,-2.746 -4.89,-3.559 -8.398,-3.547 -50.292,0.171 -100.584,0.215 -150.877,0.274 -22.259,0.026 -44.518,0.114 -66.776,-0.06 -4.019,-0.032 -5.345,1.168 -5.324,5.17 0.035,6.787 -0.679,13.578 -0.658,20.366 0.011,3.478 -1.183,5.121 -4.508,6.129 -37.741,11.438 -76.241,17.631 -115.74,17.04 -2.269,-0.034 -4.531,-0.562 -7.284,-0.925 0.834,-2.932 1.371,-5.214 2.127,-7.422 12.545,-36.646 31.818,-69.664 54.304,-100.975 2.334,-3.25 4.846,-4.43 8.834,-4.415 54.539,0.206 109.079,0.274 163.619,0.313 54.882,0.039 109.765,0.066 164.647,-0.096 4.438,-0.013 6.499,1.411 8.247,5.443 10.399,23.989 21.113,47.843 31.695,71.753 0.701,1.584 1.181,3.265 2.006,5.579 C 8.796,0.039 4.394,0.149 0,0"
             style="fill:#1e2059;fill-opacity:1;fill-rule:nonzero;stroke:none"
             id="path200" />
        </g>
        <g
           id="g202"
           transform="translate(639.041,630.6006)">
          <path
             d="M 0,0 C -3.406,-0.434 -5.17,0.638 -5.128,4.488 -5.086,8.49 -5.498,12.497 -5.735,16.966 1.218,15.815 1.882,13.697 0,0 m -19.371,5.376 c 3.296,4.333 6.196,8.147 9.098,11.96 l 1.21,-0.161 c 0.294,-4.809 0.588,-9.618 0.939,-15.363 -4.328,1.372 -7.464,2.366 -11.247,3.564 m -3.024,17.277 c 3.708,-1.134 6.512,-1.992 10.018,-3.065 -2.87,-3.879 -5.31,-7.175 -8.724,-11.79 -0.482,5.544 -0.841,9.67 -1.294,14.855 M -35.896,10.355 c 3.433,4.491 6.393,8.364 10.319,13.5 0.411,-6.385 0.719,-11.151 1.081,-16.77 -3.992,1.145 -7.257,2.082 -11.4,3.27 m -2.905,17.41 c 3.637,-1.125 6.344,-1.963 10.051,-3.109 -2.87,-3.825 -5.386,-7.178 -8.835,-11.777 -0.461,5.644 -0.797,9.755 -1.216,14.886 m -13.476,-12.28 c 3.391,4.425 6.327,8.255 10.283,13.416 0.428,-6.321 0.756,-11.175 1.136,-16.802 -4.076,1.209 -7.385,2.19 -11.419,3.386 m -2.925,17.272 c 3.493,-1.027 6.275,-1.845 10.118,-2.975 -3.02,-4.003 -5.494,-7.282 -8.912,-11.811 -0.462,5.662 -0.796,9.76 -1.206,14.786 M -68.7,20.539 c 3.531,4.609 6.397,8.352 10.168,13.273 0.479,-6.097 0.859,-10.935 1.303,-16.583 -4.039,1.166 -7.347,2.12 -11.471,3.31 m -1.919,4.119 c -0.281,4.103 -0.563,8.206 -0.908,13.254 3.47,-1.071 6.207,-1.915 9.93,-3.065 -2.854,-3.837 -5.271,-7.087 -7.689,-10.336 -0.444,0.049 -0.889,0.098 -1.333,0.147 m -14.41,0.944 c 3.374,4.481 6.283,8.343 9.192,12.205 0.375,-0.077 0.749,-0.153 1.123,-0.23 0.305,-4.806 0.61,-9.612 0.964,-15.213 -3.934,1.13 -7.229,2.075 -11.279,3.238 m -2.111,4.155 c -0.219,4.096 -0.44,8.191 -0.708,13.175 3.413,-1.034 6.153,-1.864 9.915,-3.004 -2.982,-3.93 -5.492,-7.237 -8.001,-10.543 -0.402,0.124 -0.803,0.248 -1.206,0.372 m -14.273,0.988 c 3.39,4.484 6.347,8.395 10.193,13.482 0.387,-6.24 0.683,-11.013 1.045,-16.853 -4.01,1.203 -7.173,2.152 -11.238,3.371 m -2.821,17.087 c 3.361,-0.931 6.158,-1.706 10,-2.769 -3.252,-4.168 -5.758,-7.379 -9.236,-11.836 -0.291,5.561 -0.498,9.516 -0.764,14.605 m -2.946,-15.188 c -3.408,1.024 -6.56,1.971 -10.662,3.204 3.424,4.507 6.387,8.406 9.351,12.305 l 1.311,-0.512 z m -10.122,19.407 c 2.185,-0.68 3.948,-1.228 6.434,-2.002 -2.077,-2.773 -3.724,-4.971 -5.371,-7.17 -0.354,0.094 -0.708,0.187 -1.063,0.28 z M 1.856,20.86 c -32.114,8.713 -63.95,18.453 -95.895,27.789 -8.886,2.597 -17.787,5.145 -26.801,7.75 0,-12.29 0.093,-23.965 -0.1,-35.635 -0.03,-1.742 -1.408,-3.461 -2.162,-5.19 -1.324,1.017 -2.631,2.058 -3.984,3.035 -0.367,0.266 -0.871,0.342 -1.663,0.635 -0.27,-0.881 -0.897,-2.023 -0.647,-2.265 1.681,-1.641 3.368,-3.981 5.397,-4.394 3.091,-0.627 5.669,1.294 5.966,4.785 0.398,4.683 0.473,9.394 0.7,14.356 1.409,-0.215 2.426,-0.228 3.348,-0.53 36.934,-12.107 73.85,-24.265 110.801,-36.318 1.82,-0.594 4.67,-1.411 5.163,-2.726 C 2.536,-7.851 1.3,-7.863 1.856,-7.868 Z"
             style="fill:#1e2059;fill-opacity:1;fill-rule:nonzero;stroke:none"
             id="path204" />
        </g>
        <path
           d="m 516.852,596.87 h -21.519 v 15.541 h 21.519 z"
           style="fill:#1e2059;fill-opacity:1;fill-rule:nonzero;stroke:none"
           id="path206" />
        <path
           d="M 543.749,596.87 H 522.23 v 15.541 h 21.519 z"
           style="fill:#1e2059;fill-opacity:1;fill-rule:nonzero;stroke:none"
           id="path208" />
        <path
           d="m 515.656,535.902 h -20.323 v 20.323 h 20.323 z m -27.495,0 h -20.323 v 20.323 h 20.323 z m -27.496,0 h -20.323 v 20.323 h 20.323 z m -28.691,0 h -20.323 v 20.323 h 20.323 z m 175.639,32.653 h -60.608 l -1.123,24.113 h -52.68 v -26.18 l -12.812,-0.102 v 48.695 l -7.25,0.245 v 35.596 h -13.123 l 0.227,-36.32 -45.553,0.479 -0.233,-46.282 -20.269,-0.48 v -42.982 h 213.535 z"
           style="fill:#1e2059;fill-opacity:1;fill-rule:nonzero;stroke:none"
           id="path210" />
        <path
           d="M 669.271,633.929 H 661.5 v 7.771 h 7.771 z m 0,-13.15 H 661.5 v 7.771 h 7.771 z m 0,-12.552 H 661.5 v 7.771 h 7.771 z m -14.943,25.702 h -7.771 v 7.771 h 7.771 z m 0,-13.15 h -7.771 v 7.771 h 7.771 z m 0,-12.552 h -7.771 v 7.771 h 7.771 z m -13.281,43.045 -1.101,-24.686 V 588.15 l 36.015,-0.666 v 63.788 z"
           style="fill:#1e2059;fill-opacity:1;fill-rule:nonzero;stroke:none"
           id="path212" />
        <g
           id="g214"
           transform="translate(510.8203,177.3965)">
          <path
             d="M 0,0 -21.189,11.14 -42.378,0 l 4.046,23.594 -17.142,16.71 23.69,3.442 10.595,21.467 10.594,-21.467 23.691,-3.442 -17.143,-16.71 z"
             style="fill:#1e2059;fill-opacity:1;fill-rule:nonzero;stroke:none"
             id="path216" />
        </g>
        <g
           id="g218"
           transform="translate(619.8203,199.3965)">
          <path
             d="M 0,0 -21.189,11.14 -42.378,0 l 4.047,23.594 -17.143,16.71 23.691,3.442 10.594,21.467 10.594,-21.467 23.691,-3.442 -17.143,-16.71 z"
             style="fill:#1e2059;fill-opacity:1;fill-rule:nonzero;stroke:none"
             id="path220" />
        </g>
        <g
           id="g222"
           transform="translate(394.8203,201.3965)">
          <path
             d="M 0,0 -21.189,11.14 -42.378,0 l 4.046,23.594 -17.142,16.71 23.69,3.442 10.595,21.467 10.594,-21.467 23.69,-3.442 -17.142,-16.71 z"
             style="fill:#1e2059;fill-opacity:1;fill-rule:nonzero;stroke:none"
             id="path224" />
        </g>
      </g>
    </g>
    <text
       xml:space="preserve"
       transform="matrix(1,0,0,-1,348.9141,367.3711)"
       style="font-variant:normal;font-weight:normal;font-stretch:normal;font-size:96.7132px;font-family:'Ethnocentric Rg';-inkscape-font-specification:EthnocentricRg-Regular;writing-mode:lr-tb;fill:#f1ae1d;fill-opacity:1;fill-rule:nonzero;stroke:none"
       id="text228"><tspan
         x="0 93.134811 182.40109"
         y="0"
         sodipodi:role="line"
         id="tspan226">SCS</tspan></text>
    <g
       id="g230">
      <g
         id="g232"
         clip-path="url(#clipPath236)">
        <g
           id="g238"
           transform="translate(379.7656,406.25)">
          <path
             d="m 0,0 c -4.642,0 -6.867,1.257 -6.867,4.545 0,3.288 2.225,4.449 6.867,4.449 H 44.875 L 57.738,25.822 H 1.547 c -19.632,0 -27.756,-7.93 -27.756,-20.116 0,-11.122 7.64,-18.569 24.275,-18.569 H 33.27 c 4.738,0 6.866,-1.354 6.866,-4.642 0,-3.385 -2.128,-4.739 -6.866,-4.739 H -15.667 L -28.53,-38.879 h 60.252 c 19.729,0 27.757,7.931 27.757,21.18 C 59.479,-5.9 50.968,0 35.204,0 Z"
             style="fill:none;stroke:#1d1d53;stroke-width:2;stroke-linecap:butt;stroke-linejoin:miter;stroke-miterlimit:10;stroke-dasharray:none;stroke-opacity:1"
             id="path240" />
        </g>
        <g
           id="g242"
           transform="translate(485.0864,384.0059)">
          <path
             d="m 0,0 c -10.929,0 -18.956,6.286 -18.956,15.474 0,9.284 8.124,15.764 18.956,15.764 H 32.496 L 45.358,48.066 H 0 c -22.437,0 -38.976,-12.766 -38.976,-31.722 0,-18.762 16.539,-32.979 38.976,-32.979 H 32.496 L 45.358,0 Z"
             style="fill:none;stroke:#1d1d53;stroke-width:2;stroke-linecap:butt;stroke-linejoin:miter;stroke-miterlimit:10;stroke-dasharray:none;stroke-opacity:1"
             id="path244" />
        </g>
        <g
           id="g246"
           transform="translate(562.1655,406.25)">
          <path
             d="m 0,0 c -4.642,0 -6.867,1.257 -6.867,4.545 0,3.288 2.225,4.449 6.867,4.449 H 44.875 L 57.738,25.822 H 1.547 c -19.632,0 -27.756,-7.93 -27.756,-20.116 0,-11.122 7.64,-18.569 24.275,-18.569 H 33.27 c 4.738,0 6.866,-1.354 6.866,-4.642 0,-3.385 -2.128,-4.739 -6.866,-4.739 H -15.667 L -28.53,-38.879 h 60.252 c 19.73,0 27.757,7.931 27.757,21.18 C 59.479,-5.9 50.968,0 35.204,0 Z"
             style="fill:none;stroke:#1d1d53;stroke-width:2;stroke-linecap:butt;stroke-linejoin:miter;stroke-miterlimit:10;stroke-dasharray:none;stroke-opacity:1"
             id="path248" />
        </g>
      </g>
    </g>
    <text
       xml:space="preserve"
       transform="matrix(-0.48796444,0.87286351,0.87286351,0.48796444,234.466,368.9153)"
       style="font-variant:normal;font-weight:800;font-stretch:normal;font-size:74.4964px;font-family:'Montserrat ExtraBold';-inkscape-font-specification:Montserrat-ExtraBold;writing-mode:lr-tb;fill:#1e2059;fill-opacity:1;fill-rule:nonzero;stroke:none"
       id="text252"><tspan
         x="0"
         y="0"
         id="tspan250">S</tspan></text>
    <text
       xml:space="preserve"
       transform="matrix(-0.32949759,0.94415642,0.94415642,0.32949759,211.3163,408.9283)"
       style="font-variant:normal;font-weight:800;font-stretch:normal;font-size:74.4965px;font-family:'Montserrat ExtraBold';-inkscape-font-specification:Montserrat-ExtraBold;writing-mode:lr-tb;fill:#1e2059;fill-opacity:1;fill-rule:nonzero;stroke:none"
       id="text256"><tspan
         x="0"
         y="0"
         id="tspan254">H</tspan></text>
    <text
       xml:space="preserve"
       transform="matrix(-0.19973165,0.97985064,0.97985064,0.19973165,193.1204,464.2988)"
       style="font-variant:normal;font-weight:800;font-stretch:normal;font-size:74.4965px;font-family:'Montserrat ExtraBold';-inkscape-font-specification:Montserrat-ExtraBold;writing-mode:lr-tb;fill:#1e2059;fill-opacity:1;fill-rule:nonzero;stroke:none"
       id="text260"><tspan
         x="0"
         y="0"
         id="tspan258">I</tspan></text>
    <text
       xml:space="preserve"
       transform="matrix(-0.07348274,0.99729649,0.99729649,0.07348274,187.3344,487.4489)"
       style="font-variant:normal;font-weight:800;font-stretch:normal;font-size:74.4964px;font-family:'Montserrat ExtraBold';-inkscape-font-specification:Montserrat-ExtraBold;writing-mode:lr-tb;fill:#1e2059;fill-opacity:1;fill-rule:nonzero;stroke:none"
       id="text264"><tspan
         x="0"
         y="0"
         id="tspan262">P</tspan></text>
    <text
       xml:space="preserve"
       transform="matrix(0.103013,0.99468001,0.99468001,-0.103013,183.2608,540.1238)"
       style="font-variant:normal;font-weight:800;font-stretch:normal;font-size:74.4964px;font-family:'Montserrat ExtraBold';-inkscape-font-specification:Montserrat-ExtraBold;writing-mode:lr-tb;fill:#1e2059;fill-opacity:1;fill-rule:nonzero;stroke:none"
       id="text268"><tspan
         x="0"
         y="0"
         id="tspan266">C</tspan></text>
    <text
       xml:space="preserve"
       transform="matrix(0.28410638,0.95879276,0.95879276,-0.28410638,188.2779,592.7236)"
       style="font-variant:normal;font-weight:800;font-stretch:normal;font-size:74.4964px;font-family:'Montserrat ExtraBold';-inkscape-font-specification:Montserrat-ExtraBold;writing-mode:lr-tb;fill:#1e2059;fill-opacity:1;fill-rule:nonzero;stroke:none"
       id="text272"><tspan
         x="0"
         y="0"
         id="tspan270">H</tspan></text>
    <text
       xml:space="preserve"
       transform="matrix(0.45938724,0.8882361,0.8882361,-0.45938724,204.5793,648.202)"
       style="font-variant:normal;font-weight:800;font-stretch:normal;font-size:74.4964px;font-family:'Montserrat ExtraBold';-inkscape-font-specification:Montserrat-ExtraBold;writing-mode:lr-tb;fill:#1e2059;fill-opacity:1;fill-rule:nonzero;stroke:none"
       id="text276"><tspan
         x="0"
         y="0"
         id="tspan274">A</tspan></text>
    <text
       xml:space="preserve"
       transform="matrix(0.61780578,0.78633073,0.78633073,-0.61780578,230.2353,698.4121)"
       style="font-variant:normal;font-weight:800;font-stretch:normal;font-size:74.4964px;font-family:'Montserrat ExtraBold';-inkscape-font-specification:Montserrat-ExtraBold;writing-mode:lr-tb;fill:#1e2059;fill-opacity:1;fill-rule:nonzero;stroke:none"
       id="text280"><tspan
         x="0"
         y="0"
         id="tspan278">N</tspan></text>
    <text
       xml:space="preserve"
       transform="matrix(0.75785619,0.65242164,0.65242164,-0.75785619,265.7074,744.0447)"
       style="font-variant:normal;font-weight:800;font-stretch:normal;font-size:74.4965px;font-family:'Montserrat ExtraBold';-inkscape-font-specification:Montserrat-ExtraBold;writing-mode:lr-tb;fill:#1e2059;fill-opacity:1;fill-rule:nonzero;stroke:none"
       id="text284"><tspan
         x="0"
         y="0"
         id="tspan282">D</tspan></text>
    <text
       xml:space="preserve"
       transform="matrix(0.85833532,0.51308915,0.51308915,-0.85833532,311.0902,782.4412)"
       style="font-variant:normal;font-weight:800;font-stretch:normal;font-size:74.4964px;font-family:'Montserrat ExtraBold';-inkscape-font-specification:Montserrat-ExtraBold;writing-mode:lr-tb;fill:#1e2059;fill-opacity:1;fill-rule:nonzero;stroke:none"
       id="text288"><tspan
         x="0"
         y="0"
         id="tspan286">L</tspan></text>
    <text
       xml:space="preserve"
       transform="matrix(0.92678385,0.37559512,0.37559512,-0.92678385,348.3784,805.0983)"
       style="font-variant:normal;font-weight:800;font-stretch:normal;font-size:74.4964px;font-family:'Montserrat ExtraBold';-inkscape-font-specification:Montserrat-ExtraBold;writing-mode:lr-tb;fill:#1e2059;fill-opacity:1;fill-rule:nonzero;stroke:none"
       id="text292"><tspan
         x="0"
         y="0"
         id="tspan290">E</tspan></text>
    <text
       xml:space="preserve"
       transform="matrix(0.97281355,0.23158974,0.23158974,-0.97281355,392.8257,823.0546)"
       style="font-variant:normal;font-weight:800;font-stretch:normal;font-size:74.4964px;font-family:'Montserrat ExtraBold';-inkscape-font-specification:Montserrat-ExtraBold;writing-mode:lr-tb;fill:#1e2059;fill-opacity:1;fill-rule:nonzero;stroke:none"
       id="text296"><tspan
         x="0"
         y="0"
         id="tspan294">R</tspan></text>
    <text
       xml:space="preserve"
       transform="matrix(0.99854775,0.05387375,0.05387375,-0.99854775,444.7602,834.8913)"
       style="font-variant:normal;font-weight:800;font-stretch:normal;font-size:74.4964px;font-family:'Montserrat ExtraBold';-inkscape-font-specification:Montserrat-ExtraBold;writing-mode:lr-tb;fill:#1e2059;fill-opacity:1;fill-rule:nonzero;stroke:none"
       id="text300"><tspan
         x="0"
         y="0"
         id="tspan298">S</tspan></text>
    <text
       xml:space="preserve"
       transform="matrix(0.99793608,-0.06421514,-0.06421514,-0.99793608,491.4414,836.8199)"
       style="font-variant:normal;font-weight:800;font-stretch:normal;font-size:74.4965px;font-family:'Montserrat ExtraBold';-inkscape-font-specification:Montserrat-ExtraBold;writing-mode:lr-tb;fill:#1e2059;fill-opacity:1;fill-rule:nonzero;stroke:none"
       id="text304"><tspan
         x="0"
         y="0"
         id="tspan302">I</tspan></text>
    <text
       xml:space="preserve"
       transform="matrix(0.97975361,-0.20020704,-0.20020704,-0.97975361,515.1379,836.6028)"
       style="font-variant:normal;font-weight:800;font-stretch:normal;font-size:74.4964px;font-family:'Montserrat ExtraBold';-inkscape-font-specification:Montserrat-ExtraBold;writing-mode:lr-tb;fill:#1e2059;fill-opacity:1;fill-rule:nonzero;stroke:none"
       id="text308"><tspan
         x="0"
         y="0"
         id="tspan306">N</tspan></text>
    <text
       xml:space="preserve"
       transform="matrix(0.92506607,-0.37980623,-0.37980623,-0.92506607,571.8256,825.0942)"
       style="font-variant:normal;font-weight:800;font-stretch:normal;font-size:74.4964px;font-family:'Montserrat ExtraBold';-inkscape-font-specification:Montserrat-ExtraBold;writing-mode:lr-tb;fill:#1e2059;fill-opacity:1;fill-rule:nonzero;stroke:none"
       id="text312"><tspan
         x="0"
         y="0"
         id="tspan310">G</tspan></text>
    <text
       xml:space="preserve"
       transform="matrix(0.83966619,-0.54310283,-0.54310283,-0.83966619,623.0164,804.345)"
       style="font-variant:normal;font-weight:800;font-stretch:normal;font-size:74.4964px;font-family:'Montserrat ExtraBold';-inkscape-font-specification:Montserrat-ExtraBold;writing-mode:lr-tb;fill:#1e2059;fill-opacity:1;fill-rule:nonzero;stroke:none"
       id="text316"><tspan
         x="0"
         y="0"
         id="tspan314">A</tspan></text>
    <text
       xml:space="preserve"
       transform="matrix(0.72846043,-0.68508788,-0.68508788,-0.72846043,670.4107,773.7272)"
       style="font-variant:normal;font-weight:800;font-stretch:normal;font-size:74.4964px;font-family:'Montserrat ExtraBold';-inkscape-font-specification:Montserrat-ExtraBold;writing-mode:lr-tb;fill:#1e2059;fill-opacity:1;fill-rule:nonzero;stroke:none"
       id="text320"><tspan
         x="0"
         y="0"
         id="tspan318">P</tspan></text>
    <text
       xml:space="preserve"
       transform="matrix(0.5868204,-0.80971712,-0.80971712,-0.5868204,709.2469,738.022)"
       style="font-variant:normal;font-weight:800;font-stretch:normal;font-size:74.4964px;font-family:'Montserrat ExtraBold';-inkscape-font-specification:Montserrat-ExtraBold;writing-mode:lr-tb;fill:#1e2059;fill-opacity:1;fill-rule:nonzero;stroke:none"
       id="text324"><tspan
         x="0"
         y="0"
         id="tspan322">O</tspan></text>
    <text
       xml:space="preserve"
       transform="matrix(0.42309004,-0.90608764,-0.90608764,-0.42309004,744.7827,688.712)"
       style="font-variant:normal;font-weight:800;font-stretch:normal;font-size:74.4964px;font-family:'Montserrat ExtraBold';-inkscape-font-specification:Montserrat-ExtraBold;writing-mode:lr-tb;fill:#1e2059;fill-opacity:1;fill-rule:nonzero;stroke:none"
       id="text328"><tspan
         x="0"
         y="0"
         id="tspan326">R</tspan></text>
    <text
       xml:space="preserve"
       transform="matrix(0.26552421,-0.96410419,-0.96410419,-0.26552421,767.2059,640.5554)"
       style="font-variant:normal;font-weight:800;font-stretch:normal;font-size:74.4964px;font-family:'Montserrat ExtraBold';-inkscape-font-specification:Montserrat-ExtraBold;writing-mode:lr-tb;fill:#1e2059;fill-opacity:1;fill-rule:nonzero;stroke:none"
       id="text332"><tspan
         x="0"
         y="0"
         id="tspan330">E</tspan></text>
    <text
       xml:space="preserve"
       transform="matrix(0.10271367,-0.99471096,-0.99471096,-0.10271367,780.3425,594.262)"
       style="font-variant:normal;font-weight:800;font-stretch:normal;font-size:74.4964px;font-family:'Montserrat ExtraBold';-inkscape-font-specification:Montserrat-ExtraBold;writing-mode:lr-tb;fill:#1e2059;fill-opacity:1;fill-rule:nonzero;stroke:none"
       id="text336"><tspan
         x="0"
         y="0"
         id="tspan334">P</tspan></text>
    <text
       xml:space="preserve"
       transform="matrix(-0.08645381,-0.99625586,-0.99625586,0.08645381,786.3568,541.8674)"
       style="font-variant:normal;font-weight:800;font-stretch:normal;font-size:74.4964px;font-family:'Montserrat ExtraBold';-inkscape-font-specification:Montserrat-ExtraBold;writing-mode:lr-tb;fill:#1e2059;fill-opacity:1;fill-rule:nonzero;stroke:none"
       id="text340"><tspan
         x="0"
         y="0"
         id="tspan338">O</tspan></text>
    <text
       xml:space="preserve"
       transform="matrix(-0.2731003,-0.96198556,-0.96198556,0.2731003,780.931,481.3116)"
       style="font-variant:normal;font-weight:800;font-stretch:normal;font-size:74.4964px;font-family:'Montserrat ExtraBold';-inkscape-font-specification:Montserrat-ExtraBold;writing-mode:lr-tb;fill:#1e2059;fill-opacity:1;fill-rule:nonzero;stroke:none"
       id="text344"><tspan
         x="0"
         y="0"
         id="tspan342">R</tspan></text>
    <text
       xml:space="preserve"
       transform="matrix(-0.42403548,-0.90564558,-0.90564558,0.42403548,766.5065,430.8812)"
       style="font-variant:normal;font-weight:800;font-stretch:normal;font-size:74.4964px;font-family:'Montserrat ExtraBold';-inkscape-font-specification:Montserrat-ExtraBold;writing-mode:lr-tb;fill:#1e2059;fill-opacity:1;fill-rule:nonzero;stroke:none"
       id="text348"><tspan
         x="0"
         y="0"
         id="tspan346">T</tspan></text>
  </g>
</svg>
